<?xml version="1.0" encoding="UTF-8" standalone="no"?>
<!-- Created with Inkscape (http://www.inkscape.org/) -->

<svg
   width="207.96251mm"
   height="63.500004mm"
   viewBox="0 0 207.96251 63.500004"
   version="1.1"
   id="svg1"
   xml:space="preserve"
   xmlns="http://www.w3.org/2000/svg"
   xmlns:svg="http://www.w3.org/2000/svg"><defs
     id="defs1" /><g
     id="layer1"
     transform="translate(-1.0583346,-116.68125)"><g
       id="g1"
       transform="matrix(0.26458333,0,0,0.26458333,1.0583346,116.68125)"><rect
         width="786"
         height="240"
         fill="#173b5c"
         id="rect6"
         x="0"
         y="0"
         style="fill:#002255" /><g
         transform="matrix(1.05,0,0,1.05,120,120)"
         id="g7"><circle
           cx="0"
           cy="0"
           r="58"
           fill="none"
           stroke="#ffffff"
           stroke-width="8"
           id="circle6" /><path
           d="M 0,-50 12,-12 50,0 12,12 0,50 -12,12 -50,0 -12,-12 Z"
           fill="#ffffff"
           id="path6" /><circle
           cx="0"
           cy="0"
           r="17"
           fill="#ffffff"
           id="circle7" /><path
           d="m 0,-12.04 c 4.6,-6.44 11.96,-7.36 15.64,-1.84 3.68,5.52 0.92,11.96 -5.52,17.48 C 6.44,7.28 2.76,10.04 0,12.8 -2.76,10.04 -6.44,7.28 -10.12,3.6 c -6.44,-5.52 -9.2,-11.96 -5.52,-17.48 3.68,-5.52 11.04,-4.6 15.64,1.84 z"
           fill="#ffffff"
           id="path7" /></g><path
         d="m 308.21875,76.740234 q 0,6.109375 -2.78516,10.916016 -2.78515,4.806641 -7.97363,7.43457 -5.18848,2.62793 -12.33105,2.62793 H 269.40625 V 120 H 256.1543 V 56.705078 h 28.43554 q 11.36524,0 17.49707,5.233399 6.13184,5.233398 6.13184,14.801757 z m -13.3418,0.22461 q 0,-9.972657 -11.76953,-9.972657 h -13.70117 v 20.529297 h 14.06055 q 5.48047,0 8.44531,-2.717773 2.96484,-2.717774 2.96484,-7.838867 z m 38.23438,2.964843 V 120 H 320.5332 V 79.929687 h -7.09765 v -8.535156 h 7.09765 v -5.076172 q 0,-6.603515 3.50391,-9.792968 3.50391,-3.189454 10.64648,-3.189454 3.54883,0 7.9961,0.71875 v 8.13086 q -1.8418,-0.404297 -3.6836,-0.404297 -3.23437,0 -4.55957,1.280273 -1.32519,1.280274 -1.32519,4.514649 v 3.818359 h 9.56836 v 8.535156 z M 349.42383,120 V 53.335937 h 12.62304 V 120 Z m 45.96094,0.89844 q -10.96094,0 -16.84571,-6.49121 -5.88476,-6.49121 -5.88476,-18.934574 0,-12.039062 5.97461,-18.507812 5.97461,-6.46875 16.93554,-6.46875 10.4668,0 15.99219,6.940429 5.52539,6.94043 5.52539,20.327149 v 0.359375 h -31.17578 q 0,7.097653 2.62793,10.713863 2.62793,3.61622 7.47949,3.61622 6.69336,0 8.44531,-5.79493 l 11.9043,1.03321 q -5.16601,13.20703 -20.97851,13.20703 z m 0,-42.451174 q -4.44727,0 -6.85059,3.099609 -2.40332,3.099609 -2.53809,8.669922 h 18.86719 q -0.35937,-5.884766 -2.83008,-8.827149 -2.4707,-2.942382 -6.64843,-2.942382 z M 447.5,139.49609 q -8.89453,0 -14.30762,-3.3916 -5.41308,-3.3916 -6.6709,-9.68066 l 12.62305,-1.48242 q 0.67383,2.91992 2.89746,4.58203 2.22363,1.66211 5.81738,1.66211 5.25586,0 7.68165,-3.23438 2.42578,-3.23437 2.42578,-9.61328 v -2.56055 l 0.0898,-4.80664 h -0.0898 q -4.17774,8.93946 -15.63282,8.93946 -8.49023,0 -13.16211,-6.37891 Q 424.5,107.15234 424.5,95.292969 q 0,-11.904297 4.80664,-18.373047 4.80664,-6.46875 13.9707,-6.46875 10.60157,0 14.68946,8.759765 h 0.22461 q 0,-1.572265 0.20214,-4.267578 0.20215,-2.695312 0.42676,-3.548828 h 11.94922 Q 470.5,76.246094 470.5,82.625 v 35.89258 q 0,10.37695 -5.88477,15.67773 -5.88476,5.30078 -17.11523,5.30078 z m 10.55664,-44.472653 q 0,-7.501953 -2.67285,-11.702148 -2.67285,-4.200195 -7.61426,-4.200195 -10.10742,0 -10.10742,16.171875 0,15.857421 10.01758,15.857421 5.03125,0 7.7041,-4.20019 2.67285,-4.2002 2.67285,-11.926763 z m 45.69141,25.875003 q -10.96094,0 -16.84571,-6.49121 -5.88476,-6.49121 -5.88476,-18.934574 0,-12.039062 5.97461,-18.507812 5.97461,-6.46875 16.93554,-6.46875 10.4668,0 15.99219,6.940429 5.52539,6.94043 5.52539,20.327149 v 0.359375 h -31.17578 q 0,7.097653 2.62793,10.713863 2.62793,3.61622 7.47949,3.61622 6.69336,0 8.44532,-5.79493 l 11.90429,1.03321 q -5.16601,13.20703 -20.97851,13.20703 z m 0,-42.451174 q -4.44727,0 -6.85059,3.099609 -2.40332,3.099609 -2.53809,8.669922 h 18.86719 q -0.35937,-5.884766 -2.83008,-8.827149 -2.4707,-2.942382 -6.64843,-2.942382 z M 535.51367,120 V 53.335937 h 12.62305 V 120 Z m 72.24024,-24.347656 q 0,11.814456 -6.5586,18.530276 -6.55859,6.71582 -18.14844,6.71582 -11.36523,0 -17.83398,-6.73828 -6.46875,-6.73828 -6.46875,-18.507816 0,-11.72461 6.46875,-18.44043 6.46875,-6.71582 18.10352,-6.71582 11.90429,0 18.17089,6.491211 6.26661,6.491211 6.26661,18.665039 z m -13.20704,0 q 0,-8.669922 -2.83007,-12.578125 -2.83008,-3.908203 -8.22071,-3.908203 -11.5,0 -11.5,16.486328 0,8.130856 2.80762,12.375976 2.80762,4.24512 8.1084,4.24512 11.63476,0 11.63476,-16.621096 z m 36.16797,25.156246 q -5.57031,0 -8.58007,-3.03222 -3.00977,-3.03223 -3.00977,-9.18653 V 79.929687 h -6.1543 v -8.535156 h 6.78321 l 3.95312,-11.410156 h 7.90625 v 11.410156 h 9.20899 v 8.535156 h -9.20899 v 25.246093 q 0,3.54883 1.34766,5.2334 1.34765,1.68457 4.17773,1.68457 1.48242,0 4.22266,-0.62891 v 7.81641 q -4.67188,1.52734 -10.64649,1.52734 z m 59.66211,-15.0039 q 0,7.05273 -5.77246,11.07324 -5.77246,4.02051 -15.96972,4.02051 -10.01758,0 -15.34082,-3.16699 -5.32325,-3.167 -7.0752,-9.86036 l 11.0957,-1.66211 q 0.94336,3.45899 3.25684,4.89649 2.31348,1.4375 8.06348,1.4375 5.30078,0 7.72656,-1.34766 2.42578,-1.34765 2.42578,-4.22265 0,-2.33594 -1.9541,-3.70606 -1.9541,-1.37012 -6.62598,-2.31347 -10.69141,-2.111333 -14.41992,-3.930669 -3.72852,-1.819336 -5.68262,-4.716797 -1.9541,-2.897461 -1.9541,-7.120117 0,-6.962891 5.36816,-10.848633 5.36817,-3.885742 15.20606,-3.885742 8.66992,0 13.94824,3.36914 5.27832,3.369141 6.58106,9.748047 l -11.18555,1.167969 q -0.53906,-2.964844 -2.65039,-4.424805 -2.11133,-1.459961 -6.69336,-1.459961 -4.49219,0 -6.73828,1.145508 -2.2461,1.145508 -2.2461,3.840821 0,2.111328 1.7295,3.346679 1.72949,1.235352 5.81738,2.043946 5.70508,1.167968 10.12988,2.40332 4.42481,1.235351 7.09766,2.942383 2.67285,1.707031 4.26758,4.379883 1.59472,2.672848 1.59472,6.850588 z m 30.59766,15.09375 q -10.96094,0 -16.8457,-6.49121 -5.88477,-6.49121 -5.88477,-18.934574 0,-12.039062 5.97461,-18.507812 5.97461,-6.46875 16.93555,-6.46875 10.46679,0 15.99218,6.940429 5.52539,6.94043 5.52539,20.327149 v 0.359375 h -31.17578 q 0,7.097653 2.62793,10.713863 2.62793,3.61622 7.4795,3.61622 6.69335,0 8.44531,-5.79493 l 11.90429,1.03321 q -5.16601,13.20703 -20.97851,13.20703 z m 0,-42.451174 q -4.44727,0 -6.85059,3.099609 -2.40332,3.099609 -2.53808,8.669922 h 18.86718 q -0.35937,-5.884766 -2.83007,-8.827149 -2.47071,-2.942382 -6.64844,-2.942382 z"
         fill="#ffffff"
         id="path8" /><path
         d="m 275.25244,160.41455 q 0,3.5127 -1.36963,6.14722 -1.36963,2.63452 -3.8833,4.03637 Q 267.48584,172 264.19873,172 h -8.4917 v -22.70361 h 7.50879 q 5.76855,0 8.90259,2.89233 3.13403,2.89233 3.13403,8.22583 z m -3.09375,0 q 0,-4.22168 -2.31225,-6.43726 -2.31226,-2.21557 -6.69507,-2.21557 h -4.3667 v 17.77295 h 5.05957 q 2.49756,0 4.39087,-1.09571 1.89331,-1.0957 2.90844,-3.1582 1.01514,-2.0625 1.01514,-4.86621 z M 286.53857,172 v -22.70361 h 17.2251 v 2.51367 h -14.14746 v 7.2832 h 13.18066 v 2.48145 h -13.18066 v 7.91162 h 14.80811 V 172 Z m 38.08252,0.32227 q -2.78759,0 -4.86621,-1.01514 -2.07861,-1.01514 -3.22265,-2.94873 -1.14405,-1.9336 -1.14405,-4.6084 v -14.45361 h 3.07764 v 14.1958 q 0,3.10986 1.5791,4.72119 1.5791,1.61133 4.56006,1.61133 3.06152,0 4.76148,-1.66773 1.69995,-1.66772 1.69995,-4.87427 v -13.98632 h 3.06152 v 14.16357 q 0,2.75537 -1.16821,4.75342 -1.16822,1.99805 -3.30323,3.05347 -2.13501,1.05542 -5.0354,1.05542 z m 30.6543,-20.51221 V 172 h -3.06152 v -20.18994 h -7.79883 v -2.51367 h 18.65918 v 2.51367 z m 36.05225,13.92187 q 0,3.14209 -2.45728,4.86621 -2.45727,1.72413 -6.92065,1.72413 -8.29834,0 -9.61963,-5.76856 l 2.98096,-0.59619 q 0.51562,2.04639 2.1914,3.00513 1.67578,0.95874 4.56006,0.95874 2.98096,0 4.60034,-1.0232 1.61939,-1.02319 1.61939,-3.00512 0,-1.11182 -0.50757,-1.80469 -0.50757,-0.69287 -1.42603,-1.14404 -0.91845,-0.45118 -2.1914,-0.75733 -1.27295,-0.30615 -2.81983,-0.66064 -2.69092,-0.59619 -4.08471,-1.19239 -1.3938,-0.59619 -2.19947,-1.32934 -0.80566,-0.73316 -1.23266,-1.71607 -0.42701,-0.98291 -0.42701,-2.25586 0,-2.9165 2.23169,-4.4956 2.23169,-1.5791 6.38892,-1.5791 3.86719,0 5.91357,1.18432 2.04639,1.18433 2.86817,4.03638 l -3.0293,0.53174 q -0.49951,-1.80469 -1.90137,-2.61841 -1.40185,-0.81372 -3.8833,-0.81372 -2.72314,0 -4.15722,0.90234 -1.43409,0.90235 -1.43409,2.69092 0,1.04737 0.55591,1.73218 0.55591,0.68481 1.60327,1.16016 1.04737,0.47534 4.17334,1.16821 1.04737,0.2417 2.08667,0.49145 1.03931,0.24976 1.98999,0.5962 0.95069,0.34643 1.78052,0.81372 0.82984,0.46728 1.44214,1.14404 0.61231,0.67676 0.95874,1.59521 0.34644,0.91846 0.34644,2.15918 z M 412.604,151.47168 q -3.7705,0 -5.86523,2.42505 -2.09473,2.42505 -2.09473,6.64673 0,4.17334 2.18335,6.71118 2.18335,2.53784 5.90552,2.53784 4.76953,0 7.17041,-4.72119 l 2.51367,1.25683 q -1.40185,2.93262 -3.9397,4.46338 -2.53784,1.53077 -5.8894,1.53077 -3.43213,0 -5.93774,-1.42603 -2.50562,-1.42603 -3.81885,-4.07666 -1.31323,-2.65063 -1.31323,-6.27612 0,-5.43018 2.93261,-8.50782 2.93262,-3.07763 8.1211,-3.07763 3.62549,0 6.05859,1.41797 2.43311,1.41797 3.57715,4.20556 l -2.9165,0.9668 q -0.78956,-1.98193 -2.53785,-3.0293 -1.74829,-1.04736 -4.14917,-1.04736 z M 448.73682,172 V 161.47803 H 436.4585 V 172 h -3.07764 v -22.70361 h 3.07764 v 9.60351 h 12.27832 v -9.60351 h 3.07763 V 172 Z m 15.47558,0 v -22.70361 h 3.07764 v 20.18994 H 478.7627 V 172 Z m 41.4502,0 -2.59424,-6.63867 H 492.72363 L 490.11328,172 h -3.19043 l 9.26514,-22.70361 h 3.49658 L 508.80469,172 Z m -7.7666,-20.3833 -0.14502,0.45117 q -0.40284,1.3374 -1.19239,3.43213 l -2.90039,7.46045 h 8.4917 l -2.9165,-7.49268 q -0.45117,-1.11181 -0.90235,-2.51367 z M 533.30371,172 521.1543,152.66406 l 0.0806,1.56299 0.0806,2.69092 V 172 h -2.73926 v -22.70361 h 3.57715 l 12.27832,19.46484 q -0.19336,-3.1582 -0.19336,-4.57617 v -14.88867 h 2.77149 V 172 Z m 35.64941,-11.58545 q 0,3.5127 -1.36962,6.14722 -1.36963,2.63452 -3.8833,4.03637 Q 561.18652,172 557.89941,172 h -8.4917 v -22.70361 h 7.50879 q 5.76856,0 8.90259,2.89233 3.13403,2.89233 3.13403,8.22583 z m -3.09375,0 q 0,-4.22168 -2.31225,-6.43726 -2.31226,-2.21557 -6.69507,-2.21557 h -4.3667 v 17.77295 h 5.05957 q 2.49756,0 4.39087,-1.09571 1.89331,-1.0957 2.90845,-3.1582 1.01513,-2.0625 1.01513,-4.86621 z"
         fill="#bfe9df"
         id="path9" /></g></g></svg>
